<svg xmlns="http://www.w3.org/2000/svg" version="1.1" xmlns:xlink="http://www.w3.org/1999/xlink" xmlns:svgjs="http://svgjs.dev/svgjs" width="1000" height="663" viewBox="0 0 1000 663"><g transform="matrix(1,0,0,1,0.19811459610338034,0.26842105263153826)"><svg viewBox="0 0 372 247" data-background-color="#000c2e" preserveAspectRatio="xMidYMid meet" height="663" width="1000" xmlns="http://www.w3.org/2000/svg" xmlns:xlink="http://www.w3.org/1999/xlink"><g id="tight-bounds" transform="matrix(1,0,0,1,-0.07369862975045294,-0.09999999999999432)"><svg viewBox="0 0 372.1473972595009 247.2" height="247.2" width="372.1473972595009"><g><svg viewBox="0 0 397.4975999999999 264.0389465131248" height="247.2" width="372.1473972595009"><g><rect width="397.4975999999999" height="8.23328638448595" x="0" y="142.95523609501444" fill="#ff661a" opacity="1" stroke-width="0" stroke="transparent" fill-opacity="1" class="rect-o-0" data-fill-palette-color="secondary" rx="1%" id="o-0" data-palette-color="#ff661a"></rect></g><g transform="matrix(1,0,0,1,0.9887999999999693,172.74162819805)"><svg viewBox="0 0 395.52 91.29731831507483" height="91.29731831507483" width="395.52"><g id="textblocktransform"><svg viewBox="0 0 395.52 91.29731831507483" height="91.29731831507483" width="395.52" id="textblock"><g><svg viewBox="0 0 395.52 91.29731831507483" height="91.29731831507483" width="395.52"><g transform="matrix(1,0,0,1,0,0)"><svg width="395.52" viewBox="3.0299999713897705 -36.040000915527344 158.2100067138672 36.53000259399414" height="91.29731831507483" data-palette-color="#ffffff"><path d="M26.07-17.7L26.07-4.42 25.29-3.44Q21.92 0.49 15.43 0.49L15.43 0.49Q9.67 0.49 6.38-3.33 3.1-7.15 3.03-14.14L3.03-14.14 3.03-21.12Q3.03-28.59 6.02-32.31 9.01-36.04 14.97-36.04L14.97-36.04Q20.04-36.04 22.91-33.2 25.78-30.37 26.07-25.12L26.07-25.12 21.61-25.12Q21.34-28.44 19.76-30.31 18.19-32.18 14.99-32.18L14.99-32.18Q11.16-32.18 9.38-29.68 7.59-27.17 7.52-21.68L7.52-21.68 7.52-14.43Q7.52-9.06 9.57-6.19 11.62-3.32 15.45-3.32L15.45-3.32Q19.07-3.32 20.95-5.08L20.95-5.08 21.61-5.69 21.61-13.89 15.11-13.89 15.11-17.7 26.07-17.7ZM56.49-21.12L56.49-14.65Q56.49-7.37 53.39-3.44 50.29 0.49 44.58 0.49L44.58 0.49Q39.08 0.49 35.9-3.33 32.71-7.15 32.59-14.14L32.59-14.14 32.59-20.83Q32.59-27.95 35.74-31.99 38.89-36.04 44.53-36.04L44.53-36.04Q50.14-36.04 53.28-32.17 56.42-28.3 56.49-21.12L56.49-21.12ZM52.02-14.21L52.02-20.87Q52.02-26.51 50.18-29.26 48.34-32.01 44.53-32.01L44.53-32.01Q40.84-32.01 38.95-29.22 37.06-26.44 37.03-21.02L37.03-21.02 37.03-14.65Q37.03-9.2 38.93-6.35 40.82-3.49 44.58-3.49 48.34-3.49 50.14-6.13 51.95-8.76 52.02-14.21L52.02-14.21ZM78.93-8.98L78.93-8.98Q78.93-11.65 77.49-13.06 76.04-14.48 72.29-15.82 68.53-17.16 66.54-18.64 64.55-20.12 63.56-22.01 62.57-23.9 62.57-26.34L62.57-26.34Q62.57-30.57 65.39-33.3 68.21-36.04 72.77-36.04L72.77-36.04Q75.9-36.04 78.34-34.63 80.78-33.23 82.1-30.74 83.42-28.25 83.42-25.27L83.42-25.27 78.93-25.27Q78.93-28.56 77.34-30.37 75.75-32.18 72.77-32.18L72.77-32.18Q70.06-32.18 68.57-30.66 67.08-29.15 67.08-26.42L67.08-26.42Q67.08-24.17 68.7-22.66 70.31-21.14 73.68-19.95L73.68-19.95Q78.93-18.21 81.18-15.67 83.44-13.13 83.44-9.03L83.44-9.03Q83.44-4.71 80.63-2.11 77.83 0.49 72.99 0.49L72.99 0.49Q69.89 0.49 67.27-0.87 64.64-2.22 63.14-4.68 61.64-7.13 61.64-10.3L61.64-10.3 66.13-10.3Q66.13-7.01 67.98-5.18 69.82-3.34 72.99-3.34L72.99-3.34Q75.95-3.34 77.44-4.86 78.93-6.37 78.93-8.98ZM108.68 0L105.88-9.28 93.86-9.28 91.11 0 86.52 0 97.97-35.55 101.8-35.55 113.27 0 108.68 0ZM99.87-29.3L95.04-13.13 104.73-13.13 99.87-29.3ZM134.58-19.53L134.58-15.7 122.57-15.7 122.57 0 118.11 0 118.11-35.55 136.61-35.55 136.61-31.69 122.57-31.69 122.57-19.53 134.58-19.53ZM159.17-20.26L159.17-16.43 146.59-16.43 146.59-3.83 161.24-3.83 161.24 0 142.13 0 142.13-35.55 161-35.55 161-31.69 146.59-31.69 146.59-20.26 159.17-20.26Z" opacity="1" transform="matrix(1,0,0,1,0,0)" fill="#ffffff" class="undefined-text-0" data-fill-palette-color="primary" id="text-0"></path></svg></g></svg></g></svg></g></svg></g><g transform="matrix(1,0,0,1,76.53311999999997,0)"><svg viewBox="0 0 244.43135999999998 121.40213037646484" height="121.40213037646484" width="244.43135999999998"><g><svg version="1.1" xmlns="http://www.w3.org/2000/svg" xmlns:xlink="http://www.w3.org/1999/xlink" x="8" y="0" viewBox="0 0 100 53.145999908447266" enable-background="new 0 0 100 53.146" xml:space="preserve" width="228.43135999999998" height="121.40213037646484" class="icon-icon-0" data-fill-palette-color="accent" id="icon-0"><path d="M14.5 24.146c-8.008 0-14.5 6.491-14.5 14.5s6.492 14.5 14.5 14.5S29 46.654 29 38.646 22.508 24.146 14.5 24.146zM14.5 47.146c-4.694 0-8.5-3.806-8.5-8.5s3.806-8.5 8.5-8.5 8.5 3.806 8.5 8.5S19.194 47.146 14.5 47.146z" fill="#ff661a" data-fill-palette-color="accent"></path><path d="M68 27.146c0-1.104-0.896-2-2-2H39c-1.104 0-2 0.896-2 2s0.896 2 2 2h24.076l-5.444 14H37.473l-3.578-1.789-0.004 0.007c-0.269-0.135-0.569-0.218-0.891-0.218-1.104 0-2 0.896-2 2 0 0.782 0.454 1.453 1.109 1.782l-0.004 0.007 4 2 0.004-0.007c0.269 0.135 0.569 0.218 0.891 0.218h22c0.849 0 1.569-0.53 1.859-1.276l0.004 0.002 7-18-0.004-0.001C67.947 27.644 68 27.401 68 27.146z" fill="#ff661a" data-fill-palette-color="accent"></path><path d="M36 15.146H21.229L8.456 13.18l-0.002 0.011C8.305 13.168 8.156 13.146 8 13.146c-1.657 0-3 1.343-3 3 0 1.501 1.106 2.734 2.546 2.954l-0.002 0.011 13 2L36 21.146c1.657 0 3-1.343 3-3S37.657 15.146 36 15.146z" fill="#ff661a" data-fill-palette-color="accent"></path><path d="M42 21.146c0 0 14 0 18 0 3 0 6-5.642 6-8 0-1-1-5-10-5-10 0-17 4.938-17 10C39 21.146 42 21.146 42 21.146z" fill="#ff661a" data-fill-palette-color="accent"></path><path d="M84 21.146c-2.176 0-4.248 0.438-6.14 1.225L69.736 8.153l-0.008 0.004C69.385 7.556 68.743 7.146 68 7.146c-1.104 0-2 0.896-2 2 0 0.361 0.104 0.695 0.271 0.988l-0.008 0.004 8.133 14.232C70.519 27.29 68 31.918 68 37.146c0 8.837 7.164 16 16 16s16-7.163 16-16S92.836 21.146 84 21.146zM84 47.146c-5.523 0-10-4.478-10-10 0-2.994 1.322-5.674 3.407-7.506l4.856 8.498 0.008-0.005c0.344 0.603 0.985 1.013 1.729 1.013 1.104 0 2-0.896 2-2 0-0.361-0.104-0.695-0.271-0.987l0.008-0.005-4.859-8.504c0.983-0.323 2.031-0.504 3.123-0.504 5.523 0 10 4.478 10 10S89.523 47.146 84 47.146z" fill="#ff661a" data-fill-palette-color="accent"></path><path d="M67.312 5.557l0.013-0.007-2.844-5.041-0.013 0.007C64.297 0.213 63.983 0 63.61 0c-0.081 0-0.154 0.028-0.23 0.046l-0.005-0.019-6.297 1.521 0.004 0.019c-0.438 0.106-0.77 0.483-0.77 0.954 0 0.552 0.447 1 1 1 0.082 0 0.154-0.028 0.23-0.046l0.004 0.019 5.563-1.343 2.473 4.383 0.013-0.007c0.172 0.303 0.485 0.516 0.858 0.516 0.552 0 1-0.448 1-1C67.454 5.862 67.395 5.703 67.312 5.557z" fill="#ff661a" data-fill-palette-color="accent"></path><path d="M78.873 5.233" fill="#ff661a" data-fill-palette-color="accent"></path><path d="M78.873 5.233C75.451 5.724 73 8.339 73 10.146s2.451 4.422 5.873 4.912c0.051 0.007 1.127 0 1.127-0.975V6.208C80 5.233 78.924 5.227 78.873 5.233z" fill="#ff661a" data-fill-palette-color="accent"></path></svg></g></svg></g><g></g></svg></g><defs></defs></svg><rect width="372.1473972595009" height="247.2" fill="none" stroke="none" visibility="hidden"></rect></g></svg></g></svg>